<?xml version="1.0" standalone="no"?><svg xmlns="http://www.w3.org/2000/svg" viewBox="0 0 1440 320"><path fill="#054393" fill-opacity="0.95" d="M0,224L34.3,240C68.6,256,137,288,206,293.3C274.3,299,343,277,411,240C480,203,549,149,617,149.3C685.7,149,754,203,823,229.3C891.4,256,960,256,1029,256C1097.1,256,1166,256,1234,229.3C1302.9,203,1371,149,1406,122.7L1440,96L1440,320L1405.7,320C1371.4,320,1303,320,1234,320C1165.7,320,1097,320,1029,320C960,320,891,320,823,320C754.3,320,686,320,617,320C548.6,320,480,320,411,320C342.9,320,274,320,206,320C137.1,320,69,320,34,320L0,320Z"></path></svg>